<svg class="NamedIcon_pintxo-icon__foreground__NIssd" aria-hidden="true" width="96" height="96" viewBox="0 0 96 96" fill="none" xmlns="http://www.w3.org/2000/svg"><path fill-rule="evenodd" clip-rule="evenodd" d="M21.0251 21.0251C22.392 19.6583 24.608 19.6583 25.9749 21.0251L48 43.0503L70.0251 21.0251C71.392 19.6583 73.608 19.6583 74.9749 21.0251C76.3417 22.392 76.3417 24.608 74.9749 25.9749L52.9497 48L74.9749 70.0251C76.3417 71.392 76.3417 73.608 74.9749 74.9749C73.608 76.3417 71.392 76.3417 70.0251 74.9749L48 52.9497L25.9749 74.9749C24.608 76.3417 22.392 76.3417 21.0251 74.9749C19.6583 73.608 19.6583 71.392 21.0251 70.0251L43.0503 48L21.0251 25.9749C19.6583 24.608 19.6583 22.392 21.0251 21.0251Z" fill="#161617"></path></svg>