<svg class="NamedIcon_pintxo-icon__foreground__NIssd" aria-hidden="true" width="96" height="96" viewBox="0 0 96 96" fill="none" xmlns="http://www.w3.org/2000/svg"><path fill-rule="evenodd" clip-rule="evenodd" d="M57.5251 21.0249C58.8919 19.6581 61.108 19.658 62.4748 21.0249L86.9752 45.5249C87.6316 46.1812 88.0004 47.0715 88.0004 47.9998C88.0004 48.928 87.6316 49.8183 86.9752 50.4747L62.4748 74.9747C61.108 76.3415 58.8919 76.3415 57.5251 74.9746C56.1583 73.6078 56.1583 71.3917 57.5251 70.0249L76.0505 51.4998L11.5 51.4998C9.567 51.4998 8 49.9327 8 47.9998C8 46.0668 9.567 44.4998 11.5 44.4998L76.0505 44.4998L57.5251 25.9746C56.1583 24.6078 56.1583 22.3917 57.5251 21.0249Z" fill="#161617"></path></svg>