<svg class="NamedIcon_pintxo-icon__foreground__NIssd" aria-hidden="true" width="96" height="96" viewBox="0 0 96 96" fill="none" xmlns="http://www.w3.org/2000/svg"><path fill-rule="evenodd" clip-rule="evenodd" d="M48.0002 14.8548C35.7694 14.8548 25.8543 24.7698 25.8543 37.0007C25.8543 57.3666 39.2965 73.448 46.3346 80.4318C47.3338 81.4233 48.7791 81.4264 49.7685 80.4745C56.7798 73.7292 70.146 58.0506 70.146 37.0007C70.146 24.7698 60.231 14.8548 48.0002 14.8548ZM19.146 37.0007C19.146 21.0649 32.0644 8.14648 48.0002 8.14648C63.9359 8.14648 76.8543 21.0649 76.8543 37.0007C76.8543 60.8474 61.8225 78.1866 54.4194 85.3089C50.7788 88.8113 45.1708 88.7275 41.6095 85.1936C34.275 77.9157 19.146 60.1711 19.146 37.0007Z" fill="#161617"></path><path fill-rule="evenodd" clip-rule="evenodd" d="M48.0002 29C43.5819 29 40.0002 32.5817 40.0002 37C40.0002 41.4183 43.5819 45 48.0002 45C52.4185 45 56.0002 41.4183 56.0002 37C56.0002 32.5817 52.4185 29 48.0002 29ZM33.0002 37C33.0002 28.7157 39.7159 22 48.0002 22C56.2845 22 63.0002 28.7157 63.0002 37C63.0002 45.2843 56.2845 52 48.0002 52C39.7159 52 33.0002 45.2843 33.0002 37Z" fill="#161617"></path></svg>