<svg class="NamedIcon_pintxo-icon__foreground__NIssd" aria-hidden="true" width="96" height="96" viewBox="0 0 96 96" fill="none" xmlns="http://www.w3.org/2000/svg"><path fill-rule="evenodd" clip-rule="evenodd" d="M48 10C38.0589 10 30 18.0589 30 28C30 37.9411 38.0589 46 48 46C57.9411 46 66 37.9411 66 28C66 18.0589 57.9411 10 48 10ZM37 28C37 21.9249 41.9249 17 48 17C54.0751 17 59 21.9249 59 28C59 34.0751 54.0751 39 48 39C41.9249 39 37 34.0751 37 28Z" fill="#161617"></path><path fill-rule="evenodd" clip-rule="evenodd" d="M48.0002 50C31.7752 50 17.9456 60.2645 13.0037 74.6053C11.6667 78.4849 14.7519 82 18.3725 82H77.6279C81.2486 82 84.3337 78.4849 82.9967 74.6053C78.0548 60.2645 64.2252 50 48.0002 50ZM48.0002 57C60.4972 57 71.1622 64.4606 75.6529 75H20.3475C24.8382 64.4606 35.5033 57 48.0002 57Z" fill="#161617"></path></svg>