<svg width="140" height="140" viewBox="0 0 140 140" fill="none" xmlns="http://www.w3.org/2000/svg"><path fill-rule="evenodd" clip-rule="evenodd" d="M44.584 119.481c-13.394-9.872-19.759-30.45-20.012-50.727-.35-20.301 5.29-40.227 16.462-48.962 11.173-8.734 27.758-6.205 40.07-1.453 12.19 4.825 20.012 11.849 31.341 23.366s26.094 27.407 24.465 42.465c-1.653 15.156-19.797 29.456-39.117 36.963-19.344 7.603-39.84 8.317-53.21-1.652" fill="#fff3da"/><path d="M101.7 51.18H70.9v53.8h30.8zm-55.7 0 12.5-12.6 12.4 12.6v53.7H46z" fill="#ffc244" stroke="#1a1a1a" stroke-width="2.195" stroke-linecap="round" stroke-linejoin="round"/><path d="M85 60.28h-6.2v6.2H85zm11.8 0h-6.2v6.2h6.2zm-5.7 31.6h-6.2v13.1h6.2zm-29.6-31.6h-6.2v6.2h6.2zm0 21.8h-6.2v6.2h6.2zm9.4-30.9-12.4-12.6h32l11.3 12.5H70.9z" fill="#fff" stroke="#1a1a1a" stroke-width="2.195" stroke-linecap="round" stroke-linejoin="round"/><path d="M57.7 31.18H26.9v76.5h30.8zm-30.8 0H2v76.5h24.9z" fill="#fff" stroke="#1a1a1a" stroke-width="2.195" stroke-linecap="round" stroke-linejoin="round"/><path d="M17.5 41.28h-6.2v6.2h6.2zm23.5 0h-6.2v6.2H41zm11.8 0h-6.1v6.2h6.2v-6.2zM41 62.98h-6.2v6.2H41zm11.8 0h-6.1v6.2h6.2v-6.2zm-5.6 31.6H41v13.1h6.2zm-29.7-31.6h-6.2v6.2h6.2zm0 21.8h-6.2v6.2h6.2z" fill="#ffc244" stroke="#1a1a1a" stroke-width="2.195" stroke-linecap="round" stroke-linejoin="round"/><path d="M22.7 31.18v-13.6m-3.2 9.2h7.4m-3.7-5.8h3.7" stroke="#1a1a1a" stroke-width="2.195" stroke-linecap="round" stroke-linejoin="round"/><path d="M106.7 93.88v11.3z" fill="#ffc244"/><path d="M106.7 93.88v11.3" stroke="#1a1a1a" stroke-width="2.195" stroke-linecap="round" stroke-linejoin="round"/><path d="M106.7 93.98c4.3 0 7.7-3.5 7.7-7.7s-3.5-7.7-7.7-7.7c-4.3 0-7.7 3.5-7.7 7.7s3.4 7.7 7.7 7.7" fill="#fff" stroke="#1a1a1a" stroke-width="2.195" stroke-linecap="round" stroke-linejoin="round"/><path fill-rule="evenodd" clip-rule="evenodd" d="M92.186 29.3c-1.077-.76-2.398-.977-3.27-.933a.873.873 0 1 1-.087-1.744c1.165-.058 2.897.214 4.364 1.25 1.516 1.07 2.66 2.895 2.66 5.729a.873.873 0 1 1-1.746 0c0-2.297-.892-3.576-1.92-4.302" fill="#000"/><path fill-rule="evenodd" clip-rule="evenodd" d="M97.773 29.3c1.078-.76 2.399-.977 3.27-.933a.872.872 0 1 0 .087-1.744c-1.164-.058-2.896.214-4.364 1.25-1.516 1.07-2.66 2.895-2.66 5.729a.873.873 0 1 0 1.747 0c0-2.297.892-3.576 1.92-4.302m14.413 26c-1.077-.76-2.398-.977-3.27-.933a.873.873 0 0 1-.087-1.744c1.165-.058 2.897.215 4.364 1.25 1.516 1.07 2.66 2.896 2.66 5.729a.873.873 0 0 1-1.746 0c0-2.297-.892-3.576-1.921-4.302" fill="#000"/><path fill-rule="evenodd" clip-rule="evenodd" d="M117.773 55.3c1.078-.76 2.399-.977 3.27-.933a.872.872 0 1 0 .087-1.744c-1.164-.058-2.896.215-4.364 1.25-1.516 1.07-2.659 2.896-2.659 5.729a.873.873 0 0 0 1.746 0c0-2.297.892-3.576 1.92-4.302m.413-19c-1.077-.76-2.398-.977-3.27-.933a.873.873 0 0 1-.087-1.744c1.165-.058 2.897.215 4.364 1.25 1.516 1.07 2.66 2.896 2.66 5.729a.873.873 0 0 1-1.746 0c0-2.297-.892-3.576-1.921-4.302" fill="#000"/><path fill-rule="evenodd" clip-rule="evenodd" d="M123.773 36.3c1.078-.76 2.399-.977 3.27-.933a.872.872 0 1 0 .087-1.744c-1.164-.058-2.896.215-4.364 1.25-1.516 1.07-2.659 2.896-2.659 5.729a.873.873 0 0 0 1.746 0c0-2.297.892-3.576 1.92-4.302" fill="#000"/></svg>